<?xml version="1.0" encoding="utf-8"?>
<!-- Generator: Adobe Illustrator 24.2.1, SVG Export Plug-In . SVG Version: 6.00 Build 0)  -->
<svg version="1.1" id="圖層_1" xmlns="http://www.w3.org/2000/svg" xmlns:xlink="http://www.w3.org/1999/xlink" x="0px" y="0px"
	 viewBox="0 0 48.5 50.8" style="enable-background:new 0 0 48.5 50.8;" xml:space="preserve">
<style type="text/css">
	.st0{fill:#865B38;}
	.st1{fill:#FFFFFF;}
	.st2{fill:#A73439;}
</style>
<path class="st0" d="M48.5,5.8C48-0.2,42.9,0,42.3,0c-1.1,0.1-1.8,0.5-1.9,0.8c0,0.1,0,0.2,0,0.2c0.1,0.1,0.2,0.1,0.4,0.1
	c2-0.3,3.8,0.5,4.7,1.9c0.8,1.3,0.8,2.9-0.1,4.3c-0.8,1.3-1.9,1.9-3.2,2c-1.9,0.1-3.7-1.1-4.4-2c-2.2-2.7-4.5-3.6-7.5-3
	c-3.9,0.8-5.5,3.9-5.9,4.9c-0.4-0.9-2-4-5.9-4.9c-3-0.6-5.3,0.3-7.5,3c-0.7,0.9-2.6,2.1-4.4,2C5.1,9.2,4,8.6,3.2,7.3
	C2.3,5.9,2.2,4.3,3,3c0.9-1.4,2.7-2.2,4.7-1.9c0.2,0,0.3,0,0.4-0.1c0-0.1,0.1-0.1,0-0.2C8,0.5,7.3,0.1,6.2,0C5.6,0,0.5-0.2,0,5.8
	c-0.2,2.4,0.9,4.7,3,6.1c1.2,0.8,2.6,1.3,4.1,1.4l0,0c0.2,0,0.4,0.1,0.6,0.2c0.6,0.4,0.6,1,0.6,2.6L8,27.3c-0.1,2.8-0.2,3-2.6,3.2
	v1.4h9.7v-1.4c-2.5-0.2-2.5-12.3-2.5-16.8c0.1-0.6,0.3-1.6,1.7-2.2c1.9-0.6,3.3-0.6,4.4,0c0.5,0.3,0.9,0.7,1.2,1.2
	c0.3,0.6,0.6,1.3,0.6,2h0l1,12.5c-0.1,2.8-0.2,3-2.5,3.2v1.4h4.8h0.7h4.8v-1.4c-2.3-0.2-2.5-0.5-2.5-3.2L28,14.6l0,0
	c0.1-0.9,0.3-1.6,0.8-2.3c0.3-0.4,0.6-0.7,1-0.9c0.9-0.5,2.2-0.6,3.8-0.2c0.1,0,0.2,0.1,0.2,0.1c1.7,0.5,2.1,1.7,2.1,2.4
	c0.1,4.5,0,16.6-2.5,16.8v1.4h9.7v-1.4c-2.3-0.2-2.5-0.4-2.5-3.2l-0.3-11.2c0-1.5,0-2.1,0.5-2.5c0.2-0.1,0.4-0.2,0.7-0.2l0,0
	c1.5-0.1,2.9-0.6,4.1-1.4C47.6,10.5,48.7,8.2,48.5,5.8"/>
<path class="st1" d="M10.3,46v-0.2c0.3,0,0.5-0.1,0.6-0.1c0.2-0.1,0.2-0.3,0.2-0.5v-4.3L9,46H8.8l-2.1-5v4c0,0.3,0.1,0.5,0.2,0.6
	c0.1,0.1,0.3,0.2,0.6,0.2V46h-2v-0.2c0.3,0,0.4-0.1,0.5-0.1c0.1-0.1,0.2-0.3,0.2-0.5v-4c0-0.2-0.1-0.4-0.2-0.5
	c-0.1-0.1-0.3-0.1-0.5-0.1v-0.3h2.2l1.7,3.9l1.7-3.9h2.1v0.2c-0.3,0-0.4,0.1-0.5,0.2c-0.1,0.1-0.1,0.3-0.1,0.6v3.8
	c0,0.3,0,0.4,0.1,0.5c0.1,0.1,0.3,0.1,0.5,0.2V46H10.3z"/>
<path class="st1" d="M18.4,46h-5.1v-0.2c0.3,0,0.5-0.1,0.6-0.1c0.2-0.1,0.2-0.2,0.2-0.5v-4.1c0-0.2-0.1-0.4-0.2-0.5
	c-0.1-0.1-0.3-0.1-0.6-0.1v-0.2h5V42h-0.3c-0.1-0.6-0.3-1-0.7-1.2c-0.3-0.2-0.7-0.2-1.4-0.2c-0.3,0-0.5,0.1-0.5,0.4v2
	c0.5,0,0.8-0.1,1-0.3c0.2-0.2,0.3-0.5,0.4-1h0.2v2.9h-0.2c-0.1-0.5-0.2-0.8-0.4-1c-0.2-0.2-0.6-0.3-1-0.3v2.1c0,0.2,0.1,0.3,0.2,0.4
	c0.1,0,0.3,0.1,0.5,0.1c1.1,0,1.8-0.5,2.2-1.5h0.3L18.4,46z"/>
<path class="st1" d="M21.9,46v-0.2c0.5,0,0.8-0.1,0.8-0.2c0-0.1-0.1-0.4-0.4-1.2h-1.9c-0.3,0.7-0.4,1-0.4,1.1c0,0.1,0.1,0.2,0.3,0.3
	c0.1,0,0.2,0,0.5,0.1V46h-1.8v-0.2c0.2,0,0.4-0.1,0.6-0.4c0-0.1,0.1-0.3,0.3-0.6l1.9-4.6h0.2l1.9,4.4c0.1,0.2,0.2,0.4,0.3,0.6
	c0.2,0.4,0.4,0.6,0.7,0.6V46H21.9z M21.3,41.9L20.5,44h1.6L21.3,41.9z"/>
<path class="st1" d="M29.8,42c-0.1-0.5-0.2-0.9-0.5-1.1c-0.3-0.2-0.6-0.4-1.1-0.4V45c0,0.3,0.1,0.5,0.2,0.6c0.1,0.1,0.3,0.1,0.7,0.1
	V46h-3.2v-0.2c0.3,0,0.6-0.1,0.7-0.1c0.1-0.1,0.2-0.3,0.2-0.6v-4.5c-0.5,0-0.9,0.2-1.2,0.4c-0.3,0.2-0.4,0.6-0.5,1.1h-0.3l0-1.8h5.3
	l0,1.8H29.8z"/>
<path class="st0" d="M36,43.9c-0.1,0.1-0.2,0.3-0.2,0.6v1.1c-0.2,0.2-0.6,0.3-1.1,0.4c-0.4,0.1-0.8,0.1-1.2,0.1
	c-1,0-1.7-0.2-2.3-0.7c-0.6-0.5-0.9-1.2-0.9-2.2c0-0.9,0.3-1.7,0.9-2.2c0.6-0.6,1.4-0.9,2.3-0.9c0.3,0,0.6,0.1,1,0.2
	c0.4,0.1,0.6,0.2,0.6,0.2c0.2,0,0.3-0.1,0.4-0.4h0.3v2h-0.3c-0.2-0.4-0.4-0.8-0.7-1.2c-0.4-0.4-0.8-0.6-1.2-0.6
	c-0.6,0-1.1,0.3-1.3,1c-0.2,0.5-0.3,1.1-0.3,1.8c0,0.7,0.1,1.2,0.4,1.7c0.3,0.6,0.8,0.9,1.4,0.9c0.6,0,0.8-0.2,0.8-0.5v-0.9
	c0-0.3-0.1-0.5-0.2-0.6c-0.1-0.1-0.4-0.2-0.6-0.2v-0.2h3v0.2C36.3,43.8,36.1,43.8,36,43.9"/>
<path class="st0" d="M42.4,45c-0.4,0.5-0.9,0.8-1.6,1c0.2,0.5,0.7,0.7,1.4,0.7c0.2,0,0.4,0,0.6-0.1l0.1,0.2c-0.5,0.2-1,0.3-1.6,0.3
	c-0.5,0-1-0.1-1.4-0.3c-0.5-0.2-0.8-0.5-1-0.9c-0.6-0.2-1.2-0.5-1.6-1c-0.4-0.5-0.6-1.1-0.6-1.7c0-0.9,0.3-1.6,0.9-2.2
	c0.6-0.6,1.3-0.9,2.2-0.9c0.9,0,1.7,0.3,2.2,0.9c0.6,0.6,0.9,1.3,0.9,2.2C43,43.9,42.8,44.5,42.4,45 M41.2,41.4
	c-0.3-0.7-0.7-1-1.3-1c-0.6,0-1,0.3-1.3,1c-0.2,0.5-0.3,1.1-0.3,1.7c0,0.7,0.1,1.2,0.3,1.7c0.3,0.6,0.7,0.9,1.3,0.9
	c0.6,0,1-0.3,1.3-0.9c0.2-0.5,0.3-1,0.3-1.7C41.5,42.5,41.4,41.9,41.2,41.4"/>
<rect x="5.4" y="35.6" class="st2" width="37.6" height="1.5"/>
<g>
	<path class="st1" d="M11.1,48.8c-0.1-0.2-0.2-0.4-0.3-0.6c-0.1-0.1-0.3-0.2-0.5-0.2c-0.1,0-0.2,0-0.3,0.1c-0.1,0.1-0.1,0.2-0.1,0.3
		c0,0.1,0,0.2,0.1,0.3c0.1,0.1,0.2,0.2,0.5,0.3c0.3,0.1,0.5,0.3,0.7,0.4c0.1,0.1,0.2,0.3,0.2,0.5c0,0.3-0.1,0.5-0.3,0.6
		c-0.2,0.2-0.4,0.2-0.7,0.2c-0.2,0-0.4,0-0.6-0.1c-0.1,0-0.1,0-0.1,0c0,0-0.1,0-0.1,0.1l0,0H9.4v-1h0.1c0,0.3,0.1,0.5,0.3,0.6
		c0.2,0.2,0.3,0.2,0.5,0.2c0.2,0,0.3,0,0.4-0.1c0.1-0.1,0.1-0.2,0.1-0.3c0-0.1,0-0.2-0.1-0.3c-0.1-0.1-0.3-0.2-0.5-0.3
		c-0.3-0.1-0.5-0.3-0.6-0.4c-0.1-0.1-0.2-0.3-0.2-0.5c0-0.2,0.1-0.4,0.2-0.6c0.2-0.1,0.4-0.2,0.7-0.2c0.1,0,0.3,0,0.5,0.1
		c0.1,0,0.1,0,0.2,0c0,0,0.1,0,0.1-0.1l0,0h0.1v0.9H11.1z"/>
	<path class="st1" d="M12.6,50.3v-2.2h0c-0.2,0-0.4,0.1-0.5,0.2c-0.1,0.1-0.2,0.3-0.2,0.5h-0.1l0-0.4l0-0.4H13h1.2l0,0.4l0,0.4h-0.1
		c0-0.2-0.1-0.4-0.2-0.5c-0.1-0.1-0.3-0.2-0.5-0.2h0v2.2c0,0.1,0,0.2,0.1,0.2c0.1,0,0.2,0.1,0.3,0.1v0.1H13h-0.7v-0.1
		c0.2,0,0.3,0,0.3-0.1S12.6,50.4,12.6,50.3z"/>
	<path class="st1" d="M14.5,50.7v-0.1c0.1,0,0.2,0,0.3-0.1c0,0,0.1-0.1,0.1-0.2v-1.9c0-0.1,0-0.2-0.1-0.2c0,0-0.1-0.1-0.3-0.1v-0.1
		h1h1.3v0.4v0.4h-0.1c0-0.2-0.1-0.4-0.2-0.5c-0.1-0.1-0.3-0.2-0.6-0.2h-0.2c-0.1,0-0.1,0-0.2,0c0,0,0,0.1,0,0.2v0.9h0.1
		c0.2,0,0.3,0,0.4-0.1c0.1-0.1,0.2-0.3,0.2-0.5h0.1v0.7V50h-0.1c0-0.2-0.1-0.4-0.2-0.5c-0.1-0.1-0.2-0.1-0.4-0.1h-0.1v1
		c0,0.1,0,0.1,0.1,0.2c0,0,0.1,0.1,0.2,0.1h0.1c0.3,0,0.5-0.1,0.7-0.2c0.2-0.1,0.3-0.3,0.4-0.6h0.1L17,50.3l-0.1,0.4h-1.4H14.5z"/>
	<path class="st1" d="M17.6,50.3l1-2.4h0.1h0.1l1,2.4c0.1,0.1,0.1,0.2,0.1,0.2c0,0,0.1,0.1,0.2,0.1v0.1h-0.7h-0.7v-0.1
		c0.2,0,0.3,0,0.3-0.1c0,0,0-0.1,0-0.2l-0.2-0.4H18l-0.1,0.2c-0.1,0.2-0.1,0.3-0.1,0.4c0,0.1,0.2,0.1,0.3,0.1v0.1h-0.4h-0.4v-0.1
		c0.1,0,0.2,0,0.2-0.1C17.5,50.5,17.6,50.4,17.6,50.3z M18,49.7h0.8l-0.4-1h0L18,49.7z"/>
	<path class="st1" d="M20.8,50.3v-1.9c0-0.1,0-0.2-0.1-0.2c0,0-0.1-0.1-0.3-0.1v-0.1h0.7h0.7V48c-0.1,0-0.2,0-0.3,0.1
		c0,0-0.1,0.1-0.1,0.2v0.9l0.8-0.8c0.2-0.2,0.3-0.3,0.3-0.4c0-0.1-0.1-0.1-0.3-0.1v-0.1h0.6h0.6V48c-0.1,0-0.3,0-0.4,0.1
		c-0.1,0-0.2,0.1-0.3,0.2L22,49l1.1,1.3c0.1,0.1,0.2,0.2,0.2,0.2c0.1,0,0.1,0.1,0.2,0.1v0.1h-0.7h-0.7v-0.1c0.2,0,0.3,0,0.3,0
		c0,0,0-0.1-0.1-0.2l-0.8-1l-0.1,0.1v0.8c0,0.1,0,0.2,0.1,0.2c0,0,0.1,0.1,0.3,0.1v0.1h-0.7h-0.7v-0.1c0.1,0,0.2,0,0.3-0.1
		C20.8,50.5,20.8,50.4,20.8,50.3z"/>
	<path class="st1" d="M25.2,50.3v-1.9c0-0.1,0-0.2-0.1-0.2c0,0-0.1-0.1-0.3-0.1v-0.1h0.7h0.7V48c-0.1,0-0.2,0-0.3,0.1
		c0,0-0.1,0.1-0.1,0.2v0.8h1v-0.8c0-0.1,0-0.2-0.1-0.2c0,0-0.1-0.1-0.3-0.1v-0.1h0.7h0.7V48c-0.1,0-0.2,0-0.3,0.1
		c0,0-0.1,0.1-0.1,0.2v1.9c0,0.1,0,0.2,0.1,0.2c0,0,0.1,0.1,0.3,0.1v0.1h-0.7h-0.7v-0.1c0.1,0,0.2,0,0.3-0.1c0,0,0.1-0.1,0.1-0.2
		v-0.9h-1v0.9c0,0.1,0,0.2,0.1,0.2c0,0,0.1,0.1,0.3,0.1v0.1h-0.7h-0.7v-0.1c0.1,0,0.2,0,0.3-0.1C25.2,50.5,25.2,50.4,25.2,50.3z"/>
	<path class="st1" d="M28.6,50.4c-0.3-0.3-0.4-0.6-0.4-1c0-0.4,0.1-0.8,0.4-1.1c0.3-0.3,0.6-0.4,1-0.4c0.4,0,0.8,0.1,1,0.4
		c0.3,0.3,0.4,0.6,0.4,1.1c0,0.4-0.1,0.8-0.4,1c-0.3,0.3-0.6,0.4-1,0.4C29.2,50.8,28.8,50.7,28.6,50.4z M30.2,50.3
		c0.1-0.2,0.2-0.5,0.2-1c0-0.4-0.1-0.8-0.2-1C30,48.1,29.9,48,29.6,48c-0.2,0-0.4,0.1-0.5,0.3c-0.1,0.2-0.2,0.6-0.2,1
		c0,0.4,0.1,0.8,0.2,1c0.1,0.2,0.3,0.3,0.5,0.3C29.9,50.7,30,50.5,30.2,50.3z"/>
	<path class="st1" d="M33.9,49.7c0,0.4-0.1,0.6-0.3,0.8c-0.2,0.2-0.5,0.3-0.8,0.3c-0.3,0-0.6-0.1-0.8-0.3c-0.2-0.2-0.3-0.4-0.3-0.8
		v-1.4c0-0.1,0-0.2-0.1-0.2c0,0-0.1-0.1-0.3-0.1v-0.1h0.7h0.7V48c-0.1,0-0.2,0-0.3,0.1c0,0-0.1,0.1-0.1,0.2v1.4c0,0.3,0,0.5,0.1,0.6
		c0.1,0.1,0.2,0.2,0.4,0.2c0.3,0,0.4-0.1,0.6-0.2c0.1-0.1,0.2-0.4,0.2-0.7v-1.2c0-0.2,0-0.3-0.1-0.3c-0.1-0.1-0.2-0.1-0.3-0.1v-0.1
		h0.5h0.5V48c-0.1,0-0.2,0-0.3,0.1c0,0.1-0.1,0.2-0.1,0.3V49.7z"/>
	<path class="st1" d="M36.2,48.8c-0.1-0.2-0.2-0.4-0.3-0.6c-0.1-0.1-0.3-0.2-0.5-0.2c-0.1,0-0.2,0-0.3,0.1C35,48.2,35,48.3,35,48.4
		c0,0.1,0,0.2,0.1,0.3c0.1,0.1,0.2,0.2,0.5,0.3c0.3,0.1,0.5,0.3,0.7,0.4c0.1,0.1,0.2,0.3,0.2,0.5c0,0.3-0.1,0.5-0.3,0.6
		c-0.2,0.2-0.4,0.2-0.7,0.2c-0.2,0-0.4,0-0.6-0.1c-0.1,0-0.1,0-0.1,0c0,0-0.1,0-0.1,0.1l0,0h-0.1v-1h0.1c0,0.3,0.1,0.5,0.3,0.6
		c0.2,0.2,0.3,0.2,0.5,0.2c0.2,0,0.3,0,0.4-0.1c0.1-0.1,0.1-0.2,0.1-0.3c0-0.1,0-0.2-0.1-0.3c-0.1-0.1-0.3-0.2-0.5-0.3
		c-0.3-0.1-0.5-0.3-0.6-0.4c-0.1-0.1-0.2-0.3-0.2-0.5c0-0.2,0.1-0.4,0.2-0.6c0.2-0.1,0.4-0.2,0.7-0.2c0.1,0,0.3,0,0.5,0.1
		c0.1,0,0.1,0,0.2,0c0,0,0.1,0,0.1-0.1l0,0h0.1v0.9H36.2z"/>
	<path class="st1" d="M36.8,50.7v-0.1c0.1,0,0.2,0,0.3-0.1c0,0,0.1-0.1,0.1-0.2v-1.9c0-0.1,0-0.2-0.1-0.2c0,0-0.1-0.1-0.3-0.1v-0.1
		h1h1.3v0.4v0.4h-0.1c0-0.2-0.1-0.4-0.2-0.5c-0.1-0.1-0.3-0.2-0.6-0.2h-0.2c-0.1,0-0.1,0-0.2,0c0,0,0,0.1,0,0.2v0.9h0.1
		c0.2,0,0.3,0,0.4-0.1c0.1-0.1,0.2-0.3,0.2-0.5h0.1v0.7V50h-0.1c0-0.2-0.1-0.4-0.2-0.5c-0.1-0.1-0.2-0.1-0.4-0.1h-0.1v1
		c0,0.1,0,0.1,0.1,0.2c0,0,0.1,0.1,0.2,0.1h0.1c0.3,0,0.5-0.1,0.7-0.2c0.2-0.1,0.3-0.3,0.4-0.6h0.1l-0.1,0.4l-0.1,0.4h-1.4H36.8z"/>
</g>
</svg>
